<svg focusable="false" aria-hidden="true" xmlns="http://www.w3.org/2000/svg" viewBox="0 0 14 14">
  <g fill="#264FD4" fill-rule="evenodd">
    <path
      d="m2.715 3.004-1.981.285a.82.82 0 0 0-.714.926l.989 6.396c.07.445.5.752.964.687l.742-.106V3.004ZM13.287 3.289l-1.955-.28v8.187l.716.104c.462.066.894-.242.964-.687L14 4.218c.07-.446-.25-.862-.714-.927v-.002Z"
      fill-rule="nonzero"></path>
    <path
      d="M4.094 2.1h5.86c.47 0 .848.366.848.816v8.368c0 .452-.38.816-.847.816H4.094c-.47 0-.847-.366-.847-.816V2.916c0-.452.38-.816.847-.816Zm3.56 4.063h1.78c.17 0 .271.186.176.321l-2.534 3.564c-.12.165-.388.086-.388-.115V8.084H4.612c-.157 0-.26-.158-.192-.294l1.75-3.48a.214.214 0 0 1 .192-.115h1.943c.157 0 .26.158.192.294l-.843 1.674Z">
    </path>
  </g>
</svg>
