<?xml version="1.0" encoding="UTF-8" standalone="no"?>
<!-- Created with Inkscape (http://www.inkscape.org/) -->
<svg xmlns="http://www.w3.org/2000/svg" version="1.1" width="32" height="32" viewBox="0 0 100 100">
   <title>legendary</title>
   <g transform="matrix(-0.10973238,0,0,-0.10973238,99.999996,100.48083)">
      <path fill="#444"
         d="M 388.077,684.989 C 363.388,585.76 359.871,559.955 344.734,555.963 c -14.186,-3.802 -40.276,34.241 -70.525,78.604 -38.637,56.624 -80.386,121.516 -106.856,149.176 0,0 1.213,-74.636 10.027,-155.213 C 188.62,526.07 207.083,411.729 193.539,402.723 169.303,386.566 21.171,563.02 0,570.077 c 0,0 72.591,-282.266 108.805,-334.708 0,0 167.426,14.092 227.85,36.285 0,0 18.843,35.642 43.366,114.912 24.497,79.268 53.463,217.752 75.633,217.752 22.193,0 51.159,-138.484 75.658,-217.752 24.497,-79.27 43.341,-114.912 43.341,-114.912 60.426,-22.193 227.874,-36.285 227.874,-36.285 36.19,52.442 108.781,334.708 108.781,334.708 C 890.232,563.02 742.007,386.566 717.77,402.723 c -13.544,9.006 4.919,123.348 16.157,225.807 8.911,80.577 10.122,155.213 10.122,155.213 -26.542,-27.66 -68.314,-92.553 -106.928,-149.176 -30.249,-44.363 -56.339,-82.406 -70.548,-78.604 -15.136,3.992 -17.084,30.249 -43.341,129.026 -26.185,98.755 -67.579,215.709 -67.579,215.709 0,0 -43.056,-117.239 -67.577,-215.709 z M 815.621,81.085 c 0,0 16.135,-24.212 11.049,-58.477 0,0 -13.092,1.021 -30.273,19.222 -17.084,18.108 -42.319,40.277 -42.319,40.277 H 508.096 c 0,0 -15.113,-12.047 -23.192,-25.235 C 476.826,43.778 464.755,29.664 455.653,23.63 v 0 c -9.1,6.035 -21.147,20.149 -29.227,33.242 -8.079,13.187 -23.216,25.235 -23.216,25.235 H 157.254 c 0,0 -25.259,-22.17 -42.344,-40.277 C 97.755,23.63 84.661,22.608 84.661,22.608 79.649,56.873 95.71,81.085 95.71,81.085 49.4,147.642 63.133,187.656 63.133,187.656 c 241.966,6.678 307.785,10.67 319.952,22.835 12.047,12.071 13.449,26.827 32.196,88.726 18.843,61.829 40.371,102.105 40.371,102.105 0,0 21.813,-40.182 40.371,-102.105 18.582,-61.899 20.151,-76.655 32.222,-88.726 12.165,-12.165 77.962,-16.157 319.951,-22.835 0,0 13.735,-40.015 -32.577,-106.571 z">
      </path>
   </g>
</svg>
